<?xml version="1.0" standalone="no"?>
<!DOCTYPE svg PUBLIC "-//W3C//DTD SVG 1.1//EN" "http://www.w3.org/Graphics/SVG/1.1/DTD/svg11.dtd">
<svg xmlns="http://www.w3.org/2000/svg" xmlns:xlink="http://www.w3.org/1999/xlink" version="1.1" id="redwire" x="0px" y="0px" viewBox="0 0 500 259.8" style="enable-background:new 0 0 500 259.8;" xml:space="preserve" width="500" height="259.79998779296875">
<style type="text/css">
	.st0{fill:#FF0713;}
	.st1{opacity:0.5;}
	.st2{fill:url(#SVGID_1_);}
	.st3{fill:url(#SVGID_2_);}
	.st4{fill:url(#SVGID_3_);}
	.st5{fill:url(#SVGID_4_);}
	.st6{fill:url(#SVGID_5_);}
	.st7{fill:url(#SVGID_6_);}
	.st8{fill:url(#SVGID_7_);}
	.st9{fill:url(#SVGID_8_);}
	.st10{fill:url(#SVGID_9_);}
	.st11{fill:url(#SVGID_10_);}
	.st12{fill:url(#SVGID_11_);}
	.st13{fill:url(#SVGID_12_);}
	.st14{fill:url(#SVGID_13_);}
	.st15{fill:url(#SVGID_14_);}
	.st16{fill:url(#SVGID_15_);}
	.st17{fill:url(#SVGID_16_);}
	.st18{fill:url(#SVGID_17_);}
	.st19{fill:url(#SVGID_18_);}
	.st20{fill:url(#SVGID_19_);}
	.st21{fill:url(#SVGID_20_);}
	.st22{fill:#FFFFFF;}
</style>
<title>redwire-logo-color</title>
<g>
	<path class="st0" d="M411.3,132.3c-1.8-1.7-4.3-2.4-7.3-2.4c-4.8,0-10.9,1.8-18.8,6c-2.4,1.3-4.6,2.8-6.7,4.5   c-1.7-1.3-3.2-2.7-4.7-4.2c-0.6-0.6-1.1-1.1-1.4-1.5l-0.5-0.5c-0.8-0.8-2-1.2-3.1-0.9c-1.3,0.3-2.3,1.1-3,2.1l-4.2,7   c-0.7-6.4-1.8-11.3-1.8-11.4c-0.3-1.4-1.7-2.4-3.1-2.3c-1.6,0.1-3.1,1.1-3.8,2.5c0,0-1.1,2.1-2.9,5.4c-3.5,6.4-7.4,12.5-11.7,18.3   c-1.9,2.7-4.2,5.1-6.6,7.3c-2,1.8-3.6,2.3-4.2,2.3c-2.2,0-3-0.5-3.2-0.8s-0.4-0.5-0.2-1.7c0.4-2.9,4.2-8.9,8-13.7   c1.9-2.4,3.8-4.6,5.1-6.1s2.2-2.4,2.2-2.4c1.4-1.2,1.6-3.3,0.6-4.8c-1.2-1.3-3.2-1.5-4.7-0.4l-0.2,0.1c-4.3,2.6-9,4.5-13.9,5.8   c-0.8,0.2-1.7,0.3-2.6,0.3c-3-0.1-5.8-1.2-8-3.2c-0.8-0.7-1.6-1.5-2.3-2.3c-0.3-0.3-0.5-0.6-0.6-0.7c0-0.1-0.1-0.1-0.1-0.2l0,0   v-0.1l0,0l0,0c-0.5-0.6-1.1-1-1.9-1.1h-0.3c-0.2,0-0.3,0-0.5,0c-0.8,0-1.5,0.3-2.2,0.8l0,0l0,0l-0.1,0.1c-0.6,0.4-1.1,1-1.4,1.6   l0,0v0.1l0,0l0,0c-0.5,1.1-0.5,2.3,0.1,3.4c0,0,0.1,0.1,0.3,0.4c1.4,2.4,2.7,4.8,3.6,7.4c1.3,3.5,2.2,7.6,1.6,10.7   c-0.2,1.7-1,3.2-2.2,4.4s-3.2,2.5-6.7,3.4c-0.4,0.1-0.9,0.2-1.3,0.2c-1.4,0-2.4-0.7-3.5-3.1c-1.5-3.5-1.8-9.7-1.5-14.9   c0.1-1.6,0.2-3.2,0.4-4.5c0.5-3.1,0.7-5.1,0.7-5.2c0.2-1.6-1-3.1-2.7-3.3c-0.2,0-0.4,0-0.5,0c-2,0.2-3.7,1.6-4.1,3.6   c0,0.1-0.4,2.1-0.7,5.1v0.1c-0.7,4.2-2.2,10.3-4.8,14.9c-1,2-2.5,3.8-4.2,5.3c-1.5,1.2-3.4,1.9-5.4,1.8c-0.5,0-1,0-1.5-0.1   c-2.5-0.4-3.5-1.1-3.9-1.8c-0.5-1-0.7-2.2-0.4-3.2c0.5-2.2,1.3-4.4,2.5-6.4c1.1-1.4,2.1-2.7,3.1-4c4.2-5.6,7.2-10.2,7.2-10.3   c1.1-1.5,0.9-3.5-0.6-4.7l0,0c-1.7-0.9-3.8-0.5-5,1c-2.3,2.6-4.4,5.3-6.5,8.1c-1.6,2.2-3,4.4-4.3,6.7c-3.1,3.9-6.6,7.6-9.2,9.4   c-4.5,3.3-7.8,4.4-9.7,4.3c-1.2,0-2.4-0.4-3.2-1.3c0.4-0.4,0.8-0.8,1.2-1.2c6.6-6.8,12.4-15.8,17-23.9c4.6-8.1,7.9-15.3,9.4-18.2   c1.9-3.5,3.3-7.3,4.1-11.2c0.4-1.8,0.3-3.6-0.2-5.4c-0.7-1.9-2.5-3.2-4.6-3.1c-3.5,0.2-6,2.2-9.1,5c-3.7,3.8-7.1,7.9-9.9,12.4   c-3.3,4.9-6.2,10.1-8.9,15.4c-1.6-0.3-3.3-0.4-4.9-0.4c-1.5,0-3,0.1-4.5,0.3c-7.7,0.8-14.7,5.1-18.8,11.7c-2,3.1-3.5,6.6-4.2,10.2   c-0.8,1.1-1.8,2-2.9,2.7c-2.5,1.8-7,4.2-14.6,6.7c-2.2,0.8-4.5,1.2-6.9,1.3c-2.9,0-4.2-0.9-5.1-2.2l-0.1-0.1   c5.4-2.6,10.9-5.9,16.6-9.2c3.1-1.7,5.9-3.9,8.4-6.4c1.9-1.9,3.3-4.2,3.9-6.8c0.5-2.5-0.4-5-2.4-6.5c-2-1.3-4.3-2-6.7-1.9   c-4.6,0.2-9.1,1.6-13.1,4c-7.6,4.7-12.9,12.3-14.6,21.1c-0.1,0.6-0.2,1.3-0.2,1.9c-3.5,1.4-7.2,2.1-10.9,2.1   c-4.5,0-8.8-1.4-13.3-5.3c-0.8-0.7-1.6-1.4-2.4-2.1c6.1-1.7,12.1-4.1,17.8-7c11-5.8,20-12,26.8-18.7s11.1-14,12.5-21.6   c1.2-7-0.2-14.1-4-20.1c-5.6-9.5-14.1-13.8-23.6-13.7c-10.1,0-21,4.6-31.4,11.1c-6.3,4-12.4,8.5-18,13.5   c-4.2-6.1-8.7-11.9-13.7-17.4c-1.3-1.3-3.6-1.2-5.2,0.3s-1.9,3.8-0.6,5.2l0,0l1.4,1.5c4.4,5,8.5,10.3,12.3,15.8   c-1.8,1.7-3.5,3.4-5.1,5.1c-13.2,13.6-20.8,28.8-23.1,41.3c-1.2,6.6-0.8,12.6,1.4,17.2c2.3,4.8,7.1,7.8,12.4,7.6h0.2   c2.3,0,4.5-0.4,6.7-1.1c9-2.6,15.8-6.4,20.7-11.2c1.5-1.5,2.9-3.1,4.1-4.9c1.8,1.7,3.6,3.5,5.6,5.2c4.8,4.4,11,6.8,17.4,6.8   c4.4-0.1,8.7-0.9,12.8-2.5c0.2,0.6,0.5,1.2,0.9,1.7c1.9,3,5.6,4.9,10.2,4.9c3.2-0.1,6.3-0.6,9.3-1.7c8.1-2.7,13.3-5.3,16.8-7.8   l0.1,0.2c0.6,2.4,2,4.5,3.8,6.1c2.5,2,5.6,3,8.8,2.8c2.2,0,4.4-0.3,6.5-0.9c2.7-0.7,5.2-1.9,7.6-3.4c2.1,2.3,5,3.6,8.1,3.5   c4.4,0,9.3-2.1,14.7-6c0.5-0.4,1.1-0.8,1.6-1.3c0.2,1.4,0.7,2.7,1.4,3.8c1.6,2.4,4.4,3.8,8,4.2c0.8,0.1,1.7,0.2,2.5,0.2   c3.8,0,7.6-1.3,10.6-3.7c2.2-1.7,4.1-3.8,5.5-6.2c0.3,1.2,0.6,2.3,1.1,3.4c1.4,3.5,4.3,6.6,9.1,6.6c1.1,0,2.1-0.1,3.2-0.4   c4.1-0.9,7.9-2.9,11-5.8c2.4-2.4,4.1-5.6,4.6-9c0.5-3.3,0.3-6.7-0.5-10c1.3,0.3,2.6,0.5,3.9,0.5c1.5,0,3-0.2,4.5-0.6   c1-0.2,2-0.5,2.9-0.8c-3.6,4.8-7,10.1-8.1,15.3c-0.6,2.5,0,5.1,1.6,7.1c1.8,1.9,4.5,2.6,7.8,2.6c2.4-0.1,4.7-0.8,6.7-2.2   c7-4.5,13-13.3,18-21.2c1.1-1.8,2.1-3.5,3.1-5.1c0.4,3.5,0.6,7.1,0.6,10.6l-8.5,14.2c-0.7,1-0.8,2.3-0.3,3.4c0.5,1,1.6,1.7,2.8,1.6   c3.6,0,7.1-1.7,9.2-4.6c1.9-2.6,3.1-5.7,3.6-8.9c0.3-1.5,0.5-3.1,0.5-4.6l7.2-12c1,0.9,2.2,2,3.5,3l-0.5,0.6   c-3.4,4.2-5.9,8.7-6.7,13.1c-0.6,3.5-0.1,7.2,2.3,9.7s6.2,3.8,11.1,3.8c6.2,0,14.5-1.9,25.5-6.4c2-0.7,3.1-2.7,2.8-4.8   c-0.5-1.9-2.5-2.7-4.5-1.9c-10.4,4.2-17.8,5.8-22.5,5.8c-3.7,0-5.6-0.9-6.5-1.9s-1.2-2.3-0.9-4.3c0.4-2.5,2.1-5.9,4.8-9.1   c0.2-0.2,0.4-0.5,0.6-0.7c4.1,2.6,8.8,4.1,13.6,4.3c2,0,3.9-0.3,5.8-0.9c8.5-2.9,14.4-8.2,15.6-14.2   C413.8,136.6,413.1,134.1,411.3,132.3z M130.3,143.5c-3.9-3.4-7.6-6.2-12.7-6.4c-4.2-0.1-8.5,2.6-11.8,6.8c-1,1.2-1.7,2.6-2,4.1   c-0.3,1.7,0.1,3.5,1.3,4.9c3.1,3.4,8.4,4.2,15.3,4.3c1.1,0,2.2,0,3.3-0.1c-3.5,3.4-8.8,6.5-16.8,8.8c-1.5,0.5-3,0.7-4.5,0.7   c-3,0.2-5.9-1.6-7.1-4.3c-1.4-2.9-1.9-7.5-0.9-13.1c1.8-10.5,8.7-24.4,20.7-36.7c1.3-1.3,2.6-2.6,3.9-3.9c0.5,0.8,1,1.6,1.4,2.4   C126.6,121.6,131.3,133.8,130.3,143.5L130.3,143.5z M125.4,149.9c-1.3,0.1-2.5,0.1-3.7,0.1c-3.1,0.1-6.1-0.3-9-1.3   c-0.5-0.2-1-0.5-1.4-0.8v-0.1c2.5-3,3.7-3.3,5-3.4c1.8-0.1,5.2,1.7,8.9,5.2L125.4,149.9z M136.7,148.2c0.2-0.9,0.4-1.8,0.6-2.7   c2.4-14.6-4.7-29.9-12.3-42.3c5.5-4.9,11.3-9.3,17.5-13.2c9.6-6,19.1-9.8,27-9.8c7.3,0.1,13.4,2.9,18.3,10.9   c3.2,5.5,4.1,10.6,3.3,15.6c-1,5.5-4.2,11.2-10,17s-14,11.6-24.5,17C150.3,144.1,143.6,146.6,136.7,148.2L136.7,148.2z    M185.4,142.6c2.7-1.7,5.7-2.6,8.9-2.8l0,0c1-0.1,2,0.2,2.8,0.7c0.3,0.3,0.2,0.2,0.2,0.5c-0.3,0.9-0.9,1.7-1.6,2.4   c-1.9,1.9-4,3.5-6.4,4.8c-4.9,2.9-9.6,5.6-13.9,7.8C177,150.8,181,145,185.4,142.6L185.4,142.6z M230.7,153.8   c-0.5,2.7-0.7,5.4-0.5,8.1c-1.7,1.3-3.6,2.2-5.7,2.8c-1.5,0.4-3.1,0.6-4.7,0.6c-1.7,0.1-3.4-0.4-4.8-1.4c-1.4-1.4-2.3-3.3-2.4-5.3   c-0.1-0.8-0.1-1.7-0.1-2.5c0-0.3,0-0.6,0.1-0.7c0-0.1,0-0.1,0-0.2l0,0c0,0,0,0,0-0.1c0.6-2.6,1.6-5,3-7.3c2.7-4.4,7.3-7.2,12.4-7.6   c1.2-0.1,2.4-0.2,3.6-0.2c1,0,2,0.1,3.1,0.2C232.9,144.6,231.6,149.2,230.7,153.8L230.7,153.8z M252.7,120.9   c2.5-3.9,5.4-7.6,8.6-10.9c0.6-0.6,1.3-1.2,1.9-1.7c0,0.1,0,0.3-0.1,0.4c-0.7,3.1-1.8,6.1-3.4,8.9c-1.8,3.7-6.1,12.8-11.7,22.1   c-0.1-0.1-0.1-0.2-0.2-0.3c-0.9-1.6-2.2-2.9-3.7-3.9C246.7,130.6,249.6,125.7,252.7,120.9L252.7,120.9z M238,153.8   c0.7-3.5,1.7-7,3-10.4c0.5,0.8,0.9,1.6,1.1,2.5c0,0.3,0.1,0.6,0.2,0.8c0.2,0.9,0.1,1.8-0.3,2.6c-1.3,1.9-2.7,3.6-4.1,5.2   C237.9,154.3,238,154,238,153.8z M406,139c-0.1,1.3-2.8,5.1-9.5,7.3c-1,0.3-2.1,0.5-3.2,0.5c-3.1-0.1-6.1-1-8.8-2.6   c1.1-0.8,2.2-1.5,3.4-2.1c7-3.8,12.1-5,14.9-5c1.1-0.1,2.1,0.1,3,0.8C406,138.2,406.1,138.6,406,139z M340.6,129.5   c0.3,0.1,0.5,0.1,0.8,0.1c0.7,0,1.4-0.2,2-0.7l1-0.8c0.6-0.4,1.3-0.9,1.5-1c1.2-0.7,2-1.8,2.2-3.2c0.2-1,0-2.1-0.6-3   c-0.7-1-2-1.6-3.2-1.6c-1.3,0.1-2.6,0.4-3.8,1.1c-0.8,0.4-1.6,0.9-2.2,1.6c-0.7,0.7-1.2,1.6-1.4,2.6c-0.2,1,0.1,2,0.7,2.8   C338.3,128.3,339.4,129.1,340.6,129.5L340.6,129.5z"/>
	<g class="st1">
		
			<linearGradient id="SVGID_1_" gradientUnits="userSpaceOnUse" x1="-272.2167" y1="179.6895" x2="-266.3567" y2="189.8395" gradientTransform="matrix(1 0 -0.18 1 418.3358 -88.31)">
			<stop offset="0.3" style="stop-color:#FF0713;stop-opacity:0"/>
			<stop offset="0.9" style="stop-color:#7E1812"/>
		</linearGradient>
		<path class="st2" d="M110.1,95.6c1.7,2.2,3.5,4.7,5.3,7.4c-0.3,0.3,4.7-4.1,6-5.4c0.2-0.2,0.2-0.2-0.1,0c-1.8-2.7-3.6-5.1-5.2-7.2    L110.1,95.6z"/>
		
			<linearGradient id="SVGID_2_" gradientUnits="userSpaceOnUse" x1="-257.125" y1="208.03" x2="-257.125" y2="191.56" gradientTransform="matrix(1 0 -0.18 1 418.3358 -88.31)">
			<stop offset="0.3" style="stop-color:#FF0713;stop-opacity:0"/>
			<stop offset="0.9" style="stop-color:#7E1812"/>
		</linearGradient>
		<path class="st3" d="M119.1,108.7c0.5,0.8,1,1.6,1.4,2.4c1.6,2.8,3.1,5.6,4.4,8.6l6.4-4.9c-1.9-4-4-7.8-6.3-11.5    C123.2,104.9,120.8,107,119.1,108.7z"/>
		
			<linearGradient id="SVGID_3_" gradientUnits="userSpaceOnUse" x1="-233.4552" y1="229.3927" x2="-238.9153" y2="239.8326" gradientTransform="matrix(1 0 -0.18 1 418.3358 -88.31)">
			<stop offset="0.3" style="stop-color:#FF0713;stop-opacity:0"/>
			<stop offset="0.9" style="stop-color:#7E1812"/>
		</linearGradient>
		<path class="st4" d="M141.4,154.2c4-1.1,8-2.6,11.9-4.2c-1.1-1.7-2.7-4-3.9-5.8c-4.1,1.7-8.4,3-12.7,4c0.2-0.9,0.4-1.8,0.6-2.7    c0.3-2.1,0.5-4.2,0.5-6.3l-7.6-1.8c0.2,2,0.3,4.1,0.1,6.1c1.9,1.6,3.8,3.2,5.5,5C137.7,150.5,139.6,152.5,141.4,154.2z"/>
		
			<linearGradient id="SVGID_4_" gradientUnits="userSpaceOnUse" x1="-255.2606" y1="248.5558" x2="-245.6306" y2="240.4758" gradientTransform="matrix(1 0 -0.18 1 418.3358 -88.31)">
			<stop offset="0.3" style="stop-color:#FF0713;stop-opacity:0"/>
			<stop offset="0.9" style="stop-color:#7E1812"/>
		</linearGradient>
		<path class="st5" d="M133.8,157.9c-0.5-0.5-1.8-1.7-4.4-4.2c-1.4-1.4-2.9-2.8-4-3.8c-1.3,0.1-2.5,0.1-3.7,0.1    c-0.7,0-1.4,0-2.1-0.1l-1.2,7.3c0.7,0,1.3,0.1,2,0.1c1.1,0,2.2,0,3.3-0.1c-1.4,1.3-2.9,2.5-4.5,3.5l3.8,5.5c2-1.3,3.9-2.8,5.6-4.4    c1.5-1.5,2.9-3.1,4.1-4.9c0.4,0.4,0.8,0.7,1.1,1.1C133.8,158,133.8,157.9,133.8,157.9z"/>
		
			<linearGradient id="SVGID_5_" gradientUnits="userSpaceOnUse" x1="-189.963" y1="240.2038" x2="-196.8818" y2="252.1917" gradientTransform="matrix(1 0 -0.18 1 418.3358 -88.31)">
			<stop offset="0.3" style="stop-color:#FF0713;stop-opacity:0"/>
			<stop offset="0.9" style="stop-color:#7E1812"/>
		</linearGradient>
		<path class="st6" d="M175.6,155.9c-0.3,1.4-0.4,2.9-0.3,4.3c0,1.1,0.2,2.1,0.5,3.1c0,0,5.9-3,9-4.8l3.2-1.8l-3.7-5.7    c0,0-3,1.8-5,2.9S175.6,155.9,175.6,155.9z"/>
		
			<linearGradient id="SVGID_6_" gradientUnits="userSpaceOnUse" x1="-154.14" y1="225.1506" x2="-141.0964" y2="225.1506" gradientTransform="matrix(1 0 -0.18 1 418.3358 -88.31)">
			<stop offset="0.3" style="stop-color:#FF0713;stop-opacity:0"/>
			<stop offset="0.9" style="stop-color:#7E1812"/>
		</linearGradient>
		<path class="st7" d="M237.9,133.2c0,0-1,2.1-1.6,3.5s-1.6,3.6-1.6,3.6c-1.7-0.2-3.4-0.3-5.1-0.2c-2.1,0.2-4.5,0.8-4.5,0.8    l-0.4-7.2c3-0.7,6.1-1,9.2-0.9C237.7,133.1,237.9,133.2,237.9,133.2z"/>
		
			<linearGradient id="SVGID_7_" gradientUnits="userSpaceOnUse" x1="-127.9504" y1="239.725" x2="-137.8604" y2="248.045" gradientTransform="matrix(1 0 -0.18 1 418.3358 -88.31)">
			<stop offset="0.3" style="stop-color:#FF0713;stop-opacity:0"/>
			<stop offset="0.9" style="stop-color:#7E1812"/>
		</linearGradient>
		<path class="st8" d="M237.9,154.6c-0.2,1.8-0.2,3.5-0.1,5.3c0.2,2.6,1,3.5,1,3.5c2.6-2.6,5-5.4,7.3-8.2l2.1-3l-6.2-2.8    c-0.5,0.8-1.1,1.5-1.7,2.2L237.9,154.6z"/>
		
			<linearGradient id="SVGID_8_" gradientUnits="userSpaceOnUse" x1="-150.81" y1="255.26" x2="-140.14" y2="255.26" gradientTransform="matrix(1 0 -0.18 1 418.3358 -88.31)">
			<stop offset="0.3" style="stop-color:#FF0713;stop-opacity:0"/>
			<stop offset="0.9" style="stop-color:#7E1812"/>
		</linearGradient>
		<path class="st9" d="M230.2,161.9c0.2,1.2,0.5,2.3,0.9,3.4c0.4,1.1,0.9,2.1,1.6,3c-1.6,1.1-3.4,1.9-5.2,2.6    c-1.4,0.5-2.8,0.8-4.2,1.1l-0.7-7c1.8-0.3,3.5-0.8,5.1-1.6C229.7,162.3,230.2,161.9,230.2,161.9z"/>
		
			<linearGradient id="SVGID_9_" gradientUnits="userSpaceOnUse" x1="-137.0506" y1="229.3835" x2="-131.3907" y2="232.3435" gradientTransform="matrix(1 0 -0.18 1 418.3358 -88.31)">
			<stop offset="0.1" style="stop-color:#7E1812"/>
			<stop offset="0.5" style="stop-color:#FF0713;stop-opacity:0"/>
			<stop offset="1" style="stop-color:#7E1812"/>
		</linearGradient>
		<path class="st10" d="M241.5,149.9c0,0,5.3-7.6,5.9-8.7s0.7-1.4,0.7-1.4c-0.4-0.9-1-1.8-1.7-2.4c-1.2-1.1-2.1-1.8-2.1-1.8    s-1.6,3.1-2.2,4.7c-0.4,1-0.8,2-1.1,3c0.6,1,1,2,1.2,3.1C242.3,147.9,242.3,149,241.5,149.9z"/>
		
			<linearGradient id="SVGID_10_" gradientUnits="userSpaceOnUse" x1="-215.58" y1="252.36" x2="-204.55" y2="252.36" gradientTransform="matrix(1 0 -0.18 1 418.3358 -88.31)">
			<stop offset="0.3" style="stop-color:#FF0713;stop-opacity:0"/>
			<stop offset="0.8" style="stop-color:#7E1812"/>
		</linearGradient>
		<path class="st11" d="M167.7,159.4c-0.1,1.2-0.1,2.3,0,3.5c0.2,1.3,0.9,3.5,0.9,3.5c-1.9,0.7-3.9,1.3-5.9,1.7    c-2.6,0.5-5.2,0.6-5.2,0.6l0.9-7.1c1.7-0.1,3.4-0.4,5-0.8C165.7,160.1,167.7,159.4,167.7,159.4z"/>
		
			<linearGradient id="SVGID_11_" gradientUnits="userSpaceOnUse" x1="-122.9001" y1="248.6196" x2="-113.5301" y2="246.9196" gradientTransform="matrix(1 0 -0.18 1 418.3358 -88.31)">
			<stop offset="0.3" style="stop-color:#FF0713;stop-opacity:0"/>
			<stop offset="0.8" style="stop-color:#7E1812"/>
		</linearGradient>
		<path class="st12" d="M260.9,150.9c-3.1,3.9-6.6,7.5-9.2,9.4l-0.5,0.3c0,0.3,0.1,0.5,0.1,0.5c0.4,2.2,1,4.3,1.8,6.4    c0.8-0.5,1.5-1,2.3-1.6c0.5-0.4,1-0.8,1.5-1.2C256.3,160.6,259.2,154.1,260.9,150.9z"/>
		
			<linearGradient id="SVGID_12_" gradientUnits="userSpaceOnUse" x1="-100.0853" y1="243.4159" x2="-89.0353" y2="241.4059" gradientTransform="matrix(1 0 -0.18 1 418.3358 -88.31)">
			<stop offset="0.3" style="stop-color:#FF0713;stop-opacity:0"/>
			<stop offset="0.8" style="stop-color:#7E1812"/>
		</linearGradient>
		<path class="st13" d="M285.4,138.3c0,0.1-0.4,2.1-0.7,5.1v0.1c-0.7,4.2-2.2,10.3-4.8,14.9c-1,2-2.5,3.8-4.2,5.3    c-0.2,0.1-0.4,0.3-0.6,0.4c0.9,2.1,1.9,4.1,3,6c0.5-0.3,1-0.6,1.5-1c2.2-1.7,4.1-3.8,5.5-6.2c0,0.1,0.1,0.3,0.1,0.5    c-1.8-8.2,0-23.1,0.2-25.3C285.4,138.2,285.4,138.3,285.4,138.3z M285.6,137.5c0,0.1,0,0.2-0.1,0.2l0.2-0.1L285.6,137.5z     M286.2,166.4c0.1,0.2,0.2,0.4,0.3,0.6l0,0C286.4,166.8,286.3,166.6,286.2,166.4z"/>
		
			<linearGradient id="SVGID_13_" gradientUnits="userSpaceOnUse" x1="-66.315" y1="244.31" x2="-66.315" y2="232.87" gradientTransform="matrix(1 0 -0.18 1 418.3358 -88.31)">
			<stop offset="0.3" style="stop-color:#FF0713;stop-opacity:0"/>
			<stop offset="0.8" style="stop-color:#7E1812"/>
		</linearGradient>
		<path class="st14" d="M313.6,147.9c-3.3-0.5-6.5-1.7-9.4-3.3c0.4,0.8,0.7,1.7,1.1,2.6c1.1,2.8,1.7,5.8,1.8,8.9    c2.2-0.9,5.4-2.3,7.4-3.2C314.3,151.1,314,149.5,313.6,147.9z"/>
		
			<linearGradient id="SVGID_14_" gradientUnits="userSpaceOnUse" x1="-28.2161" y1="254.2468" x2="-17.3161" y2="247.9569" gradientTransform="matrix(1 0 -0.18 1 418.3358 -88.31)">
			<stop offset="0.3" style="stop-color:#FF0713;stop-opacity:0"/>
			<stop offset="0.8" style="stop-color:#7E1812"/>
		</linearGradient>
		<path class="st15" d="M354.7,153.9c0.3,3,0.1,6-0.4,9c-1,4.1-1.5,4.6-2.1,5.5s-6.1,0.2-6.1,0.2s4.2-7.5,5.9-10.1    S354.7,153.9,354.7,153.9z"/>
		
			<linearGradient id="SVGID_15_" gradientUnits="userSpaceOnUse" x1="-8.6629" y1="232.4964" x2="-16.0529" y2="235.1964" gradientTransform="matrix(1 0 -0.18 1 418.3358 -88.31)">
			<stop offset="0.3" style="stop-color:#FF0713;stop-opacity:0"/>
			<stop offset="0.8" style="stop-color:#7E1812"/>
		</linearGradient>
		<path class="st16" d="M361.6,142.4c0.3,2.5,0.4,5.1,0.3,7.6c-0.1,1.6-0.1,3.3,0.1,4.9l6.4-10.6l-3-8L361.6,142.4z"/>
		
			<linearGradient id="SVGID_16_" gradientUnits="userSpaceOnUse" x1="-7.1809" y1="227.4064" x2="-0.6309" y2="231.1864" gradientTransform="matrix(1 0 -0.18 1 418.3358 -88.31)">
			<stop offset="0.3" style="stop-color:#FF0713;stop-opacity:0"/>
			<stop offset="0.8" style="stop-color:#7E1812"/>
		</linearGradient>
		<path class="st17" d="M373.4,135.9c0,0,2.4,2.2,3.4,3.1s1.7,1.4,1.7,1.4c-1.2,0.9-2.3,2-3.3,3.1c-0.8,0.9-1.6,1.7-2.4,2.5    c0,0-3.1-2.6-3.5-3c-0.3-0.3-0.5-0.6-0.7-0.9L373.4,135.9z"/>
		
			<linearGradient id="SVGID_17_" gradientUnits="userSpaceOnUse" x1="14.53" y1="237.31" x2="2.24" y2="237.31" gradientTransform="matrix(1 0 -0.18 1 418.3358 -88.31)">
			<stop offset="0.3" style="stop-color:#FF0713;stop-opacity:0"/>
			<stop offset="0.8" style="stop-color:#7E1812"/>
		</linearGradient>
		<path class="st18" d="M384.4,144.3c-1,0.6-2,1.3-2.9,2.1c-1.2,1-2.3,2.2-3.3,3.4c1.2,0.8,2.5,1.5,3.9,2.1c1.9,0.7,5.5,1.8,5.5,1.8    l3.4-7c-1.4-0.2-2.8-0.6-4.1-1.2C385,144.6,384.4,144.3,384.4,144.3z"/>
		
			<linearGradient id="SVGID_18_" gradientUnits="userSpaceOnUse" x1="329.65" y1="241.9" x2="329.65" y2="228.63" gradientTransform="matrix(1 0 0 1 0 -88.31)">
			<stop offset="0.3" style="stop-color:#FF0713;stop-opacity:0"/>
			<stop offset="0.8" style="stop-color:#7E1812"/>
		</linearGradient>
		<path class="st19" d="M324.9,146.9c2.6-0.9,5.2-1.9,7.6-3.2c4.5-2.2,6.6-3.4,6.6-3.4s-6,6.9-8,9.4s-2.5,3.3-2.5,3.3l-8.4,0.5    C320.3,153.6,324.3,147.4,324.9,146.9z"/>
		
			<linearGradient id="SVGID_19_" gradientUnits="userSpaceOnUse" x1="346.6591" y1="229.71" x2="354.08" y2="229.71" gradientTransform="matrix(1 0 0 1 0 -88.31)">
			<stop offset="0.3" style="stop-color:#FF0713;stop-opacity:0"/>
			<stop offset="0.8" style="stop-color:#7E1812"/>
		</linearGradient>
		<path class="st20" d="M354.1,143.3l-1.2-12.1c0,0-4.6,8.5-5.9,10.7s2,9.7,2,9.7S352.8,145.6,354.1,143.3z"/>
		
			<linearGradient id="SVGID_20_" gradientUnits="userSpaceOnUse" x1="-248.275" y1="253.16" x2="-248.275" y2="244.96" gradientTransform="matrix(1 0 -0.18 1 418.3358 -88.31)">
			<stop offset="0.3" style="stop-color:#FF0713;stop-opacity:0"/>
			<stop offset="0.8" style="stop-color:#7E1812"/>
		</linearGradient>
		<path class="st21" d="M123.8,157.2c0,0,5.2-0.3,6.9-0.4l1.7-0.1l0.4,0.3c-1.5,2.1-3.2,4.1-5.1,5.9c-2.2,1.8-2.6,2-2.6,2l-6.9-3.4    c0,0,2.3-1.4,3.8-2.6C122.6,158.3,123.2,157.8,123.8,157.2z"/>
	</g>
	<path class="st22" d="M240.1,165.4c-1.8-0.6-3.2-2.2-3.4-4.1c-0.4-2.1-0.4-4.2,0-6.3c0.2-1.1,1-5.2,1.5-6.9   c0.4-1.4,1.2-3.8,1.5-4.5c0.8-1.7,5.4-12,6.3-13.7c0.1-0.1,0-0.2-0.1-0.3l0,0h-0.1c-0.1,0-0.2,0-0.2,0.1c-0.8,1.5-4.4,9.5-5.9,12.7   c-0.3,0.7-0.6,1.4-0.9,2.1c-1.1,3.2-2,6.4-2.7,9.7c-0.7,4-0.9,7.9,0.4,9.7c0.8,1.3,2.2,2.2,3.8,2.4c1,0.1,2.1,0.2,2.2-0.2   S241.1,165.9,240.1,165.4z M119.8,99l0.7-0.7l-0.1-0.2c-4.1-6.1-8.7-11.8-13.6-17.3c-0.4-0.4-0.9-0.6-1.4-0.6c-0.2,0-0.4,0-0.6,0.1   c-0.1,0-0.2,0.1-0.2,0.2s0.1,0.2,0.2,0.2c0.5,0,0.9,0.2,1.2,0.6c4.9,5.4,9.5,11.2,13.6,17.3L119.8,99z M352.1,143.2   c-1,1.8-2.1,3.5-3.1,5.1c-5.1,8.1-10.8,16.2-17.1,20.5c-0.1,0.1-0.1,0.2-0.1,0.3s0.1,0.1,0.2,0.1h0.1l0.3-0.2   c6.6-4.2,12.4-12.6,17.7-20.9c1-1.6,2-3.3,3.1-5.1l0.6-1.1l-0.2-1.5L352.1,143.2z M283.1,162.8c-1.4,2.2-3.1,4.2-5.2,5.8   c-0.3,0.2-0.5,0.4-0.8,0.6c-0.1,0.1-0.1,0.2-0.1,0.3s0.1,0.1,0.2,0.1h0.1c0.6-0.3,1.1-0.7,1.7-1.1c2.1-1.7,3.9-3.7,5.3-5.9l0.6-0.9   c-0.1-0.5-0.1-1-0.2-1.5L283.1,162.8z M126.8,161.3c-1.7,1.6-3.5,3.1-5.5,4.4c-0.1,0.1-0.1,0.2-0.1,0.3l0,0c0,0.1,0.1,0.1,0.2,0.1   h0.1c2.3-1.4,4.4-3.1,6.3-4.9c1.4-1.4,2.7-2.9,3.8-4.5l-1.1,0.1C129.5,158.4,128.3,160,126.8,161.3L126.8,161.3z M312.3,147.6   l-1-0.2l0.3,1.2c0.8,3.1,1,6.3,0.5,9.5c-0.3,1.6-0.8,3.1-1.5,4.5c-0.1,0.1,0,0.2,0.1,0.3h0.1c0.1,0,0.2,0,0.2-0.1   c1-1.6,1.6-3.4,1.9-5.3c0.5-3.2,0.3-6.4-0.5-9.5L312.3,147.6z M237,134.8c0.1-0.2,0.2-0.4,0.3-0.6c-1.5-0.2-2.9-0.4-4.4-0.4   c-1,0-2,0.1-3.1,0.1c-0.1,0-0.2,0.1-0.2,0.2l0,0c0,0.1,0.1,0.2,0.2,0.2l0,0c0.8,0,1.5-0.1,2.2-0.1c1.6,0,3.1,0.1,4.7,0.4L237,134.8   z M181.6,166.8L181.6,166.8h-0.7c-2.5,0-4.1-0.6-5.3-1.9c-1.6-1.9-2.3-4.4-1.9-6.9l0.7-2.5c0.4-1.5,1-3,1.7-4.4   c0.1-0.1,0-0.2-0.1-0.3l0,0h-0.1c-0.1,0-0.2,0-0.2,0.1c-0.9,1.6-1.6,3.3-2.1,5.1l-0.6,2c0,0-0.7,3.3,0.4,5.5   c0.1,0.2,0.2,0.5,0.4,0.7l0.1,0.2c0,0.1,0.1,0.2,0.2,0.3c0.1,0.1,0.2,0.2,0.3,0.3s0.1,0.2,0.2,0.3v0.1c0.2,0.3,0.5,0.5,0.7,0.7l0,0   c1.4,1,3,1.4,4.7,1.3l0,0c0.5,0,1,0,1.6-0.1c0.1,0,0.2-0.1,0.2-0.2C181.9,167,181.8,166.8,181.6,166.8L181.6,166.8z M201.6,135.3   c-1.8-1.2-3.9-1.8-6-1.7c-0.6,0-1.1,0-1.7,0.1c-0.1,0-0.2,0.1-0.2,0.2c0,0.1,0.1,0.2,0.2,0.2l0,0h0.9c2.1-0.1,4.2,0.5,6,1.7   c1.6,1.3,2.4,3.4,2,5.4c-0.2,0.9-0.5,1.7-0.9,2.5c-0.1,0.1,0,0.2,0.1,0.3h0.1c0.1,0,0.2,0,0.2-0.1c0.6-1,1.1-2.1,1.3-3.3   C204,138.7,203.2,136.6,201.6,135.3L201.6,135.3z M193.3,87.3c-5-8.6-12.8-13.2-22.3-13.2h-0.2c-0.9,0-1.9,0-2.9,0.1   c-0.1,0-0.2,0.1-0.2,0.2l0,0c0,0.1,0.1,0.2,0.2,0.2l0,0c0.7,0,1.4-0.1,2.1-0.1h0.2c9.6,0,17.3,4.6,22.4,13.2   c3.6,5.7,5,12.6,3.9,19.3c-0.6,3.3-1.7,6.5-3.4,9.5c-0.1,0.1,0,0.3,0.1,0.3l0,0h0.1c0.1,0,0.2,0,0.2-0.1c1.8-3.2,3.1-6.6,3.8-10.2   C198.4,99.9,197,93,193.3,87.3L193.3,87.3z M158.4,162.7L158.4,162.7h-1.2H157c-5.2,0-9.7-1.8-14.1-5.6c-0.8-0.7-1.6-1.4-2.4-2.1   c0,0-9-8.8-10.2-9.8l-0.9-0.8c-3.7-3.3-7.2-6-11.9-6.1h-0.2c-0.4,0-0.7,0-1.1,0.1c-0.1,0-0.2,0.1-0.2,0.2c0,0.1,0.1,0.2,0.2,0.2   h0.4c4.7,0.1,8.2,2.8,11.9,6.1c0,0,8.7,8.4,9.9,9.5l1.2,1.1c0.8,0.7,1.6,1.4,2.4,2.1c4.4,3.8,8.8,5.6,14.1,5.6h0.2   c0.7,0,1.3,0,2-0.1c0.1,0,0.2-0.1,0.2-0.2l0,0C158.6,162.8,158.6,162.7,158.4,162.7L158.4,162.7z M220.6,166.5L220.6,166.5h-0.8   c-2,0.1-3.9-0.5-5.5-1.7c-2.1-1.7-2.7-4.5-2.8-6c-0.1-0.9-0.1-1.8-0.1-2.7c0-0.4,0-0.6,0.1-0.8v-0.1l0.1-0.3   c0.5-2.1,1.2-4.1,2.2-5.9c0.1-0.1,0-0.2-0.1-0.3h-0.1c-0.1,0-0.2,0-0.2,0.1c-1.2,2.1-2.1,4.4-2.6,6.7l-0.1,0.4c0,0.2,0,0.4-0.1,0.8   c0,0.9,0,1.8,0.1,2.7c0.2,1.5,0.8,4.4,2.8,6c1.6,1.2,3.5,1.8,5.5,1.7l0,0c0.5,0,1.1,0,1.6-0.1c0.1,0,0.2-0.1,0.2-0.2l0,0   C220.8,166.6,220.7,166.5,220.6,166.5L220.6,166.5z M126.9,151.4L126.9,151.4l-0.4-0.4l-1,0.1c-1.3,0.1-2.5,0.1-3.7,0.1h-0.2   c-3.2,0.1-6.3-0.3-9.3-1.4c-0.7-0.2-1.3-0.6-1.8-1.1l-0.8-0.8c0,0-0.1-0.1-0.2-0.1l0,0c-0.1,0-0.1,0-0.2,0.1l-0.3,0.4   c-0.1,0.1-0.1,0.2,0,0.3l0.6,0.6c0.5,0.5,1.1,0.8,1.8,1.1c3,1,6.2,1.5,9.4,1.4h0.1c1.2,0,2.4-0.1,3.6-0.1L126.9,151.4z    M135.3,145.8c-0.1,0.6-0.2,1.2-0.4,1.9l0.5,0.6l0.1-0.4c0.2-0.8,0.4-1.7,0.6-2.6c1.9-11.6-1.9-24.7-12-41.3l-0.7,0.7   C133.5,121.2,137.3,134.3,135.3,145.8L135.3,145.8z M343.5,121.1c0.8,0,1.7,0.3,2.2,1c0.4,0.7,0.5,1.4,0.4,2.2   c0,0.2-0.1,0.5-0.2,0.7c0,0.1,0,0.2,0.1,0.3h0.1c0.1,0,0.1,0,0.2-0.1c0.3-0.4,0.5-0.9,0.6-1.4c0.2-0.7,0-1.5-0.4-2.2   c-0.5-0.7-1.3-1-2.2-1h-0.1c-0.3,0-0.5,0-0.8,0.1c-0.1,0-0.2,0.1-0.2,0.3C343.3,121,343.4,121.1,343.5,121.1L343.5,121.1z    M410.5,133.1c-1.5-1.4-3.6-2.1-6.5-2.1c-0.6,0-1.2,0-1.8,0.1c-0.1,0-0.2,0.1-0.2,0.2c0,0.1,0.1,0.2,0.2,0.2l0,0h1   c2.8,0,5,0.7,6.5,2.1c1.5,1.5,2.1,3.6,1.6,5.7c-0.2,1-0.5,2-1,2.9c-0.1,0.1,0,0.2,0.1,0.3h0.1c0.1,0,0.2,0,0.2-0.1   c0.7-1.1,1.1-2.3,1.4-3.6C412.6,136.7,412,134.6,410.5,133.1L410.5,133.1z M393.7,148H393c-3.2-0.2-6.4-1.1-9.2-2.7l-0.6-0.3   c-0.2,0.2-0.5,0.4-0.7,0.6l0.5,0.3c2.8,1.6,5.9,2.5,9.2,2.7h0.2c0.4,0,0.9,0,1.3-0.1c0.1,0,0.2-0.1,0.2-0.2   C394,148.1,393.9,148,393.7,148L393.7,148z M265.3,119.5c1.8-3.4,3.2-7.1,4-10.9c0.4-1.6,0.3-3.3-0.2-4.9c-0.5-1.4-1.8-2.3-3.3-2.3   h-0.1l-0.7,0.1c-0.1,0-0.2,0.1-0.2,0.2s0.1,0.2,0.2,0.2c1.5,0,2.7,1,3.3,2.3c0.5,1.6,0.5,3.3,0.2,4.9c-0.8,3.8-2.2,7.5-4,10.9   c-0.3,0.6-0.7,1.4-1.1,2.3c-1.5,3.1-3.8,7.9-6.8,13.2c-0.1,0.1,0,0.2,0.1,0.3l0,0h0.1c0.1,0,0.2,0,0.2-0.1c3.1-5.7,5.7-10.9,7.2-14   C264.6,120.9,265,120.1,265.3,119.5L265.3,119.5z M381.8,167L381.8,167c-0.6,0-1.1,0-1.5,0c-3.5,0-6-0.8-7.4-2.3   c-1.2-1.3-1.5-3-1.2-5.3c0.3-1.7,0.9-3.3,1.8-4.8c0.1-0.1,0-0.3-0.1-0.3l0,0h-0.1c-0.1,0-0.2,0-0.2,0.1c-1,1.7-1.8,3.6-2.2,5.6   c-0.4,2.3,0,4,1.2,5.3c1.4,1.5,3.9,2.3,7.4,2.3l0,0c0.7,0,1.5,0,2.4-0.1c0.1,0,0.2-0.1,0.2-0.2l0,0C382,167.1,381.9,167,381.8,167z    M243.8,136.7c-0.1,0.2-0.3,0.5-0.4,0.8c1.1,0.8,2.1,1.9,2.8,3.1c0,0,0.5,0.9,0.7,1.4l0.4-0.6l0.2-0.3c-0.2-0.4-0.5-0.9-0.5-1   C246.2,138.8,245.1,137.6,243.8,136.7L243.8,136.7z M103.1,167.9L103.1,167.9h-0.6c-3.5,0.2-6.7-1.8-8.1-5c-1.6-3.3-2-8.2-1-13.8   c1.2-6.3,3.5-12.4,6.6-18c0.1-0.1,0-0.2-0.1-0.3h-0.1c-0.1,0-0.2,0-0.2,0.1c-3.3,5.8-5.7,12.1-7,18.7c-1,5.6-0.7,10.5,1,13.8   c1.4,3.2,4.6,5.2,8.1,5l0,0c0.5,0,1,0,1.4-0.1c0.1,0,0.2-0.1,0.2-0.2l0,0C103.3,168,103.2,167.9,103.1,167.9z M319.2,142.1h-0.5   c-3.2-0.1-6.2-1.3-8.6-3.4c-0.9-0.7-1.7-1.6-2.5-2.4c-0.3-0.4-0.5-0.6-0.6-0.8l-0.2-0.2l0,0v-0.1c-0.3-0.4-0.7-0.6-1.2-0.6h-0.1   h-0.3c-0.2,0-0.3,0-0.5,0.1c-0.1,0-0.2,0.1-0.2,0.2c0,0.1,0.1,0.2,0.2,0.2h0.1c0.5,0.1,0.9,0.3,1.2,0.7l0.2-0.1l-0.1,0.2l0.2,0.2   c0.1,0.2,0.3,0.4,0.6,0.8c0.8,0.9,1.6,1.7,2.5,2.5c2.4,2.1,5.5,3.3,8.6,3.4c0.4,0,0.9,0,1.3-0.1c0.1,0,0.2-0.1,0.2-0.2l0,0   c0-0.1-0.1-0.3-0.2-0.3C319.3,142.1,319.3,142.1,319.2,142.1z M337.1,135.7c0.5,0,1,0.3,1.3,0.7c0.4,0.6,0.5,1.5,0.2,2.2   c0,0.1,0,0.3,0.1,0.3c0,0,0,0,0.1,0s0.1,0,0.2-0.1c0.7-0.8,0.8-2,0.2-2.9c-0.4-0.5-0.9-0.7-1.5-0.7c-0.2,0-0.4,0-0.6,0.1   c-0.1,0-0.2,0.1-0.2,0.2C336.8,135.6,336.9,135.7,337.1,135.7L337.1,135.7z M327.4,165.7c-2.5,0-3.5-0.6-3.9-1.2   c-0.5-0.7-0.7-1.7-0.4-2.6c0.4-1.8,1.1-3.5,2-5c0.1-0.1,0-0.2-0.1-0.3h-0.1c-0.1,0-0.2,0-0.2,0.1c-1.1,1.8-1.9,3.7-2.4,5.8   c-0.3,0.9-0.1,1.8,0.4,2.6c0.5,0.5,1.5,1.1,4,1.2h0.1c0.2,0,0.4,0,0.6-0.1c0.1,0,0.2-0.1,0.2-0.3   C327.6,165.8,327.5,165.7,327.4,165.7L327.4,165.7z M296.6,166.9c-2,0-3.4-1.2-4.5-3.8c-2-4.7-1.7-13-1.6-15.5   c0.1-1.5,0.2-3,0.4-4.7c0.5-3.1,0.7-5.1,0.7-5.1c0.1-0.5-0.1-1.1-0.5-1.5s-0.9-0.6-1.4-0.6h-0.1c-0.2,0-0.3,0-0.5,0.1   c-0.1,0-0.2,0.1-0.2,0.3c0,0.1,0.1,0.2,0.2,0.2c0.5,0,0.9,0.2,1.2,0.6c0.4,0.4,0.5,0.9,0.5,1.5c0,0-0.1,2-0.7,5.1   c-0.2,1.7-0.3,3.2-0.4,4.7c-0.1,2.4-0.5,10.8,1.5,15.5c1.2,2.6,2.5,3.7,4.5,3.8l0,0c0.3,0,0.6,0,0.9-0.1c0.1,0,0.2-0.1,0.2-0.2   C296.8,167,296.7,166.9,296.6,166.9L296.6,166.9z M270.7,166.7h-0.4c-0.6,0-1.1,0-1.7-0.1c-2.4-0.4-3.9-1.1-4.7-2.3   c-0.7-1.2-0.9-2.7-0.6-4.1c0.4-2.1,1.2-4.2,2.3-6.1c0.1-0.1,0-0.2-0.1-0.3h-0.1c-0.1,0-0.1,0-0.2,0.1l-0.1,0.1v0.1   c-1.2,2.1-2.1,4.4-2.6,6.8c-0.4,1.4-0.2,2.8,0.6,4.1c0.9,1.2,2.3,1.9,4.7,2.3c0.6,0.1,1.1,0.1,1.7,0.1l0,0c0.4,0,0.8,0,1.2-0.1   c0.1,0,0.2-0.1,0.2-0.2C271,166.9,270.9,166.8,270.7,166.7L270.7,166.7z M276.1,136c-0.3-0.2-0.7-0.3-1.1-0.3c-0.2,0-0.4,0-0.6,0.1   c-0.1,0-0.2,0.1-0.2,0.2c0,0.1,0.1,0.2,0.2,0.2c0.3,0,0.6,0.1,0.9,0.3c0.8,0.6,1,1.7,0.6,2.6c0,0.1,0,0.2,0.1,0.3h0.1   c0.1,0,0.2,0,0.2-0.1l0.1-0.2C277.1,138.2,277,136.8,276.1,136L276.1,136L276.1,136z M372.1,137.6c1.5,1.5,3.1,2.9,4.7,4.2l0.7-0.6   c-1.6-1.3-3.1-2.6-4.6-4.1c-0.6-0.6-1.1-1.1-1.5-1.5S371,135,371,135c-0.4-0.4-0.9-0.6-1.5-0.6c-0.2,0-0.3,0-0.5,0.1h-0.1   c-0.1,0-0.2,0.1-0.2,0.2c0,0.1,0.1,0.2,0.2,0.2c0.5,0,0.9,0.3,1.3,0.6l0.5,0.6C371,136.4,371.5,137,372.1,137.6L372.1,137.6z    M360.7,145.2l-0.3-2.6c-0.1-1.1-0.2-2.1-0.4-3l0,0c-0.5-3.8-1.1-6.7-1.3-7.8c0-0.2-0.1-0.3-0.1-0.5c-0.2-0.9-1-1.4-1.9-1.4   c-0.2,0-0.4,0-0.6,0.1c-0.1,0-0.2,0.2-0.2,0.3s0.1,0.1,0.2,0.2c0.8,0,1.5,0.6,1.7,1.3c0,0.2,0.1,0.3,0.1,0.5   c0.3,1.4,1.1,5.6,1.7,10.8l0.3,2.7c0.3,3.1,0.4,6.2,0.1,9.4c0,0.2,0,0.4,0,0.5c-0.1,1.5-0.3,3-0.5,4.3c-0.4,2.1-1,4.2-2,6.2   c-0.1,0.1,0,0.2,0.1,0.3l0,0h0.1c0.1,0,0.2,0,0.2-0.1c1.2-2.2,2-4.5,2.4-6.9c0.1-0.7,0.2-1.4,0.3-2.2l0,0c0.1-0.8,0.1-1.6,0.2-2.4   c0.3-3.2,0.2-6.4-0.1-9.6C360.7,145.3,360.7,145.2,360.7,145.2L360.7,145.2z M404.6,161.4c-1.6,0-1.6,0.7-1.1,1.8s2.5,1.7,2.5,0   C406.1,163.3,406.2,161.5,404.6,161.4L404.6,161.4z"/>
</g>
</svg>